<svg id="visual" viewBox="0 0 900 600" width="900" height="600" xmlns="http://www.w3.org/2000/svg" xmlns:xlink="http://www.w3.org/1999/xlink" version="1.1"><rect x="0" y="0" width="900" height="600" fill="#FFFFFF"></rect><defs><linearGradient id="grad1_0" x1="33.3%" y1="100%" x2="100%" y2="0%"><stop offset="20%" stop-color="#ffffff" stop-opacity="1"></stop><stop offset="80%" stop-color="#ffffff" stop-opacity="1"></stop></linearGradient></defs><defs><linearGradient id="grad2_0" x1="0%" y1="100%" x2="66.7%" y2="0%"><stop offset="20%" stop-color="#ffffff" stop-opacity="1"></stop><stop offset="80%" stop-color="#ffffff" stop-opacity="1"></stop></linearGradient></defs><g transform="translate(900, 600)"><path d="M-321 0C-320.1 -33.8 -319.3 -67.7 -314.8 -102.3C-310.3 -136.9 -302.3 -172.4 -284.4 -206.6C-266.5 -240.9 -238.8 -274 -202.8 -279.1C-166.7 -284.2 -122.3 -261.4 -87.1 -268.2C-52 -275 -26 -311.5 0 -348L0 0Z" fill="#c8c1f3"></path></g><g transform="translate(0, 0)"><path d="M306 0C322.4 37.2 338.9 74.3 334.3 108.6C329.8 142.9 304.3 174.4 278.3 202.2C252.3 230 225.7 254.1 194.6 267.8C163.4 281.5 127.7 284.9 94.6 291C61.4 297.2 30.7 306.1 0 315L0 0Z" fill="#c8c1f3"></path></g></svg>