<svg id="visual" viewBox="0 0 900 600" width="900" height="600" xmlns="http://www.w3.org/2000/svg" xmlns:xlink="http://www.w3.org/1999/xlink" version="1.1"><path d="M0 298L13.7 309.7C27.3 321.3 54.7 344.7 82 320.2C109.3 295.7 136.7 223.3 163.8 188.5C191 153.7 218 156.3 245.2 166.2C272.3 176 299.7 193 327 218.7C354.3 244.3 381.7 278.7 409 276.7C436.3 274.7 463.7 236.3 491 222.3C518.3 208.3 545.7 218.7 573 249.8C600.3 281 627.7 333 654.8 367.5C682 402 709 419 736.2 386C763.3 353 790.7 270 818 247.8C845.3 225.7 872.7 264.3 886.3 283.7L900 303L900 0L886.3 0C872.7 0 845.3 0 818 0C790.7 0 763.3 0 736.2 0C709 0 682 0 654.8 0C627.7 0 600.3 0 573 0C545.7 0 518.3 0 491 0C463.7 0 436.3 0 409 0C381.7 0 354.3 0 327 0C299.7 0 272.3 0 245.2 0C218 0 191 0 163.8 0C136.7 0 109.3 0 82 0C54.7 0 27.3 0 13.7 0L0 0Z" fill="#A87FF3" stroke-linecap="round" stroke-linejoin="miter"></path></svg>